<svg width="13.333313" height="13.333252" viewBox="0 0 13.3333 13.3333" fill="none" xmlns="http://www.w3.org/2000/svg" xmlns:xlink="http://www.w3.org/1999/xlink">
	<desc>
			Created with Pixso.
	</desc>
	<defs/>
	<path id="Vector" d="M3.52 12.54L0 13.33L0.78 9.8C0.26 8.84 -0.01 7.76 0 6.66C0 2.98 2.98 0 6.66 0C10.34 0 13.33 2.98 13.33 6.66C13.33 10.34 10.34 13.33 6.66 13.33C5.57 13.33 4.49 13.06 3.52 12.54ZM3.72 11.14L4.15 11.37C4.92 11.78 5.79 12 6.66 12C7.72 12 8.75 11.68 9.62 11.1C10.5 10.51 11.19 9.68 11.59 8.7C11.99 7.73 12.1 6.66 11.89 5.62C11.69 4.59 11.18 3.64 10.43 2.89C9.69 2.14 8.74 1.64 7.7 1.43C6.67 1.22 5.6 1.33 4.62 1.73C3.65 2.14 2.81 2.82 2.23 3.7C1.64 4.58 1.33 5.61 1.33 6.66C1.33 7.55 1.54 8.41 1.96 9.17L2.19 9.61L1.75 11.57L3.72 11.14Z" fill="#878787" fill-opacity="1.000000" fill-rule="nonzero"/>
</svg>
