<svg width="13.333313" height="13.333252" viewBox="0 0 13.3333 13.3333" fill="none" xmlns="http://www.w3.org/2000/svg" xmlns:xlink="http://www.w3.org/1999/xlink">
	<desc>
			Created with Pixso.
	</desc>
	<defs/>
	<path id="Vector" d="M10 1.33L12.66 1.33C12.84 1.33 13.01 1.4 13.13 1.52C13.26 1.65 13.33 1.82 13.33 2L13.33 12.66C13.33 12.84 13.26 13.01 13.13 13.13C13.01 13.26 12.84 13.33 12.66 13.33L0.66 13.33C0.48 13.33 0.32 13.26 0.19 13.13C0.07 13.01 0 12.84 0 12.66L0 2C0 1.82 0.07 1.65 0.19 1.52C0.32 1.4 0.48 1.33 0.66 1.33L3.33 1.33L3.33 0L4.66 0L4.66 1.33L8.66 1.33L8.66 0L10 0L10 1.33ZM12 6.66L1.33 6.66L1.33 12L12 12L12 6.66ZM8.66 2.66L4.66 2.66L4.66 4L3.33 4L3.33 2.66L1.33 2.66L1.33 5.33L12 5.33L12 2.66L10 2.66L10 4L8.66 4L8.66 2.66ZM2.66 8L4 8L4 9.33L2.66 9.33L2.66 8ZM6 8L7.33 8L7.33 9.33L6 9.33L6 8ZM9.33 8L10.66 8L10.66 9.33L9.33 9.33L9.33 8Z" fill="#878787" fill-opacity="1.000000" fill-rule="nonzero"/>
</svg>
