<svg width="20.000000" height="18.000000" viewBox="0 0 20 18" fill="none" xmlns="http://www.w3.org/2000/svg" xmlns:xlink="http://www.w3.org/1999/xlink">
	<desc>
			Created with Pixso.
	</desc>
	<defs/>
	<path d="M1 0L19 0C19.26 0 19.51 0.1 19.7 0.29C19.89 0.48 20 0.73 20 1L20 17C20 17.26 19.89 17.51 19.7 17.7C19.51 17.89 19.26 18 19 18L1 18C0.73 18 0.48 17.89 0.29 17.7C0.1 17.51 0 17.26 0 17L0 1C0 0.73 0.1 0.48 0.29 0.29C0.48 0.1 0.73 0 1 0ZM18 4.23L10.07 11.33L2 4.21L2 16L18 16L18 4.23ZM2.51 2L10.06 8.66L17.5 2L2.51 2Z" fill="#FFA800" fill-opacity="1.000000" fill-rule="nonzero"/>
</svg>
