<svg width="32.000000" height="32.000000" viewBox="0 0 32 32" fill="none" xmlns="http://www.w3.org/2000/svg" xmlns:xlink="http://www.w3.org/1999/xlink">
	<desc>
			Created with Pixso.
	</desc>
	<defs/>
	<path d="M16 2.66C8.63 2.66 2.66 8.63 2.66 16C2.66 22.65 7.54 28.17 13.91 29.17L13.91 19.85L10.53 19.85L10.53 16L13.91 16L13.91 13.06C13.91 9.72 15.9 7.87 18.95 7.87C20.41 7.87 21.93 8.13 21.93 8.13L21.93 11.41L20.25 11.41C18.6 11.41 18.08 12.44 18.08 13.49L18.08 16L21.78 16L21.19 19.85L18.08 19.85L18.08 29.17C24.45 28.17 29.33 22.65 29.33 16C29.33 8.63 23.36 2.66 16 2.66Z" fill="#5243C2" fill-opacity="1.000000" fill-rule="nonzero"/>
</svg>
