<svg width="12.000000" height="14.485352" viewBox="0 0 12 14.4854" fill="none" xmlns="http://www.w3.org/2000/svg" xmlns:xlink="http://www.w3.org/1999/xlink">
	<desc>
			Created with Pixso.
	</desc>
	<defs/>
	<path id="Vector" d="M6 12.59L9.29 9.3C9.95 8.64 10.39 7.81 10.57 6.91C10.75 6 10.66 5.06 10.31 4.21C9.95 3.36 9.36 2.63 8.59 2.12C7.82 1.6 6.92 1.33 6 1.33C5.07 1.33 4.17 1.6 3.4 2.12C2.63 2.63 2.04 3.36 1.68 4.21C1.33 5.06 1.24 6 1.42 6.91C1.6 7.81 2.04 8.64 2.7 9.3L6 12.59ZM6 14.48L1.75 10.24C0.91 9.4 0.34 8.33 0.11 7.17C-0.12 6 0 4.8 0.45 3.7C0.91 2.6 1.67 1.67 2.66 1.01C3.65 0.35 4.81 0 6 0C7.18 0 8.34 0.35 9.33 1.01C10.32 1.67 11.08 2.6 11.54 3.7C11.99 4.8 12.11 6 11.88 7.17C11.65 8.33 11.08 9.4 10.24 10.24L6 14.48ZM6 7.33C6.35 7.33 6.69 7.19 6.94 6.94C7.19 6.69 7.33 6.35 7.33 6C7.33 5.64 7.19 5.3 6.94 5.05C6.69 4.8 6.35 4.66 6 4.66C5.64 4.66 5.3 4.8 5.05 5.05C4.8 5.3 4.66 5.64 4.66 6C4.66 6.35 4.8 6.69 5.05 6.94C5.3 7.19 5.64 7.33 6 7.33ZM6 8.66C5.29 8.66 4.61 8.38 4.11 7.88C3.61 7.38 3.33 6.7 3.33 6C3.33 5.29 3.61 4.61 4.11 4.11C4.61 3.61 5.29 3.33 6 3.33C6.7 3.33 7.38 3.61 7.88 4.11C8.38 4.61 8.66 5.29 8.66 6C8.66 6.7 8.38 7.38 7.88 7.88C7.38 8.38 6.7 8.66 6 8.66Z" fill="#979797" fill-opacity="1.000000" fill-rule="nonzero"/>
</svg>
