<svg width="32.000000" height="32.000000" viewBox="0 0 32 32" fill="none" xmlns="http://www.w3.org/2000/svg" xmlns:xlink="http://www.w3.org/1999/xlink">
	<desc>
			Created with Pixso.
	</desc>
	<defs>
		<clipPath id="clip26_528">
			<rect rx="-0.500000" width="31.000000" height="31.000000" transform="translate(0.500000 0.500000)" fill="white" fill-opacity="0"/>
		</clipPath>
	</defs>
	<rect rx="-0.500000" width="31.000000" height="31.000000" transform="translate(0.500000 0.500000)" fill="#FFFFFF" fill-opacity="0"/>
	<g clip-path="url(#clip26_528)">
		<path d="M16 2.66C19.62 2.66 20.07 2.67 21.49 2.74C22.91 2.81 23.88 3.03 24.73 3.36C25.61 3.7 26.35 4.16 27.09 4.9C27.77 5.57 28.29 6.37 28.63 7.26C28.96 8.11 29.18 9.08 29.25 10.5C29.31 11.92 29.33 12.37 29.33 16C29.33 19.62 29.32 20.07 29.25 21.49C29.18 22.91 28.96 23.88 28.63 24.73C28.29 25.62 27.77 26.43 27.09 27.09C26.42 27.77 25.62 28.29 24.73 28.63C23.88 28.96 22.91 29.18 21.49 29.25C20.07 29.31 19.62 29.33 16 29.33C12.37 29.33 11.92 29.31 10.5 29.25C9.08 29.18 8.11 28.96 7.26 28.63C6.37 28.29 5.57 27.77 4.9 27.09C4.22 26.42 3.7 25.62 3.36 24.73C3.03 23.88 2.81 22.91 2.74 21.49C2.68 20.07 2.66 19.62 2.66 16C2.66 12.37 2.68 11.92 2.74 10.5C2.81 9.08 3.03 8.11 3.36 7.26C3.7 6.37 4.22 5.56 4.9 4.9C5.57 4.22 6.37 3.7 7.26 3.36C8.11 3.03 9.08 2.81 10.5 2.74C11.92 2.68 12.37 2.66 16 2.66ZM16 9.33C14.23 9.33 12.53 10.03 11.28 11.28C10.03 12.53 9.33 14.23 9.33 16C9.33 17.76 10.03 19.46 11.28 20.71C12.53 21.96 14.23 22.66 16 22.66C17.76 22.66 19.46 21.96 20.71 20.71C21.96 19.46 22.66 17.76 22.66 16C22.66 14.23 21.96 12.53 20.71 11.28C19.46 10.03 17.76 9.33 16 9.33ZM24.66 9C24.66 8.55 24.49 8.13 24.17 7.82C23.86 7.5 23.44 7.33 23 7.33C22.55 7.33 22.13 7.5 21.82 7.82C21.5 8.13 21.33 8.55 21.33 9C21.33 9.44 21.5 9.86 21.82 10.17C22.13 10.49 22.55 10.66 23 10.66C23.44 10.66 23.86 10.49 24.17 10.17C24.49 9.86 24.66 9.44 24.66 9ZM16 12C17.06 12 18.07 12.42 18.82 13.17C19.57 13.92 20 14.93 20 16C20 17.06 19.57 18.07 18.82 18.82C18.07 19.57 17.06 20 16 20C14.93 20 13.92 19.57 13.17 18.82C12.42 18.07 12 17.06 12 16C12 14.93 12.42 13.92 13.17 13.17C13.92 12.42 14.93 12 16 12Z" fill="#5243C2" fill-opacity="1.000000" fill-rule="nonzero"/>
	</g>
</svg>
