<svg width="88.000000" height="16.000000" viewBox="0 0 88 16" fill="none" xmlns="http://www.w3.org/2000/svg" xmlns:xlink="http://www.w3.org/1999/xlink">
	<desc>
			Created with Pixso.
	</desc>
	<defs>
		<clipPath id="clip21_396">
			<rect id="system/star-fill" rx="-0.500000" width="15.000000" height="15.000000" transform="translate(0.500000 0.500000)" fill="white" fill-opacity="0"/>
		</clipPath>
		<clipPath id="clip21_400">
			<rect id="system/star-fill" rx="-0.500000" width="15.000000" height="15.000000" transform="translate(18.500000 0.500000)" fill="white" fill-opacity="0"/>
		</clipPath>
		<clipPath id="clip21_404">
			<rect id="system/star-fill" rx="-0.500000" width="15.000000" height="15.000000" transform="translate(36.500000 0.500000)" fill="white" fill-opacity="0"/>
		</clipPath>
		<clipPath id="clip21_408">
			<rect id="system/star-fill" rx="-0.500000" width="15.000000" height="15.000000" transform="translate(54.500000 0.500000)" fill="white" fill-opacity="0"/>
		</clipPath>
		<clipPath id="clip21_412">
			<rect id="system/star-fill" rx="-0.500000" width="15.000000" height="15.000000" transform="translate(72.500000 0.500000)" fill="white" fill-opacity="0"/>
		</clipPath>
	</defs>
	<rect id="system/star-fill" rx="-0.500000" width="15.000000" height="15.000000" transform="translate(0.500000 0.500000)" fill="#FFFFFF" fill-opacity="0"/>
	<g clip-path="url(#clip21_396)">
		<path id="Vector" d="M8 12.17L3.29 14.8L4.34 9.52L0.39 5.86L5.74 5.22L8 0.33L10.25 5.22L15.6 5.86L11.65 9.52L12.7 14.8L8 12.17Z" fill="#FFA800" fill-opacity="1.000000" fill-rule="nonzero"/>
	</g>
	<rect id="system/star-fill" rx="-0.500000" width="15.000000" height="15.000000" transform="translate(18.500000 0.500000)" fill="#FFFFFF" fill-opacity="0"/>
	<g clip-path="url(#clip21_400)">
		<path id="Vector" d="M26 12.17L21.29 14.8L22.34 9.52L18.39 5.86L23.74 5.22L26 0.33L28.25 5.22L33.6 5.86L29.65 9.52L30.7 14.8L26 12.17Z" fill="#FFA800" fill-opacity="1.000000" fill-rule="nonzero"/>
	</g>
	<rect id="system/star-fill" rx="-0.500000" width="15.000000" height="15.000000" transform="translate(36.500000 0.500000)" fill="#FFFFFF" fill-opacity="0"/>
	<g clip-path="url(#clip21_404)">
		<path id="Vector" d="M44 12.17L39.29 14.8L40.34 9.52L36.39 5.86L41.74 5.22L44 0.33L46.25 5.22L51.6 5.86L47.65 9.52L48.7 14.8L44 12.17Z" fill="#FFA800" fill-opacity="1.000000" fill-rule="nonzero"/>
	</g>
	<rect id="system/star-fill" rx="-0.500000" width="15.000000" height="15.000000" transform="translate(54.500000 0.500000)" fill="#FFFFFF" fill-opacity="0"/>
	<g clip-path="url(#clip21_408)">
		<path id="Vector" d="M62 12.17L57.29 14.8L58.34 9.52L54.39 5.86L59.74 5.22L62 0.33L64.25 5.22L69.6 5.86L65.65 9.52L66.7 14.8L62 12.17Z" fill="#FFA800" fill-opacity="1.000000" fill-rule="nonzero"/>
	</g>
	<rect id="system/star-fill" rx="-0.500000" width="15.000000" height="15.000000" transform="translate(72.500000 0.500000)" fill="#FFFFFF" fill-opacity="0"/>
	<g clip-path="url(#clip21_412)">
		<path id="Vector" d="M80 12.17L75.29 14.8L76.34 9.52L72.39 5.86L77.74 5.22L80 0.33L82.25 5.22L87.6 5.86L83.65 9.52L84.7 14.8L80 12.17Z" fill="#FFA800" fill-opacity="1.000000" fill-rule="nonzero"/>
	</g>
</svg>
