<svg width="32.000000" height="32.000000" viewBox="0 0 32 32" fill="none" xmlns="http://www.w3.org/2000/svg" xmlns:xlink="http://www.w3.org/1999/xlink">
	<desc>
			Created with Pixso.
	</desc>
	<defs>
		<clipPath id="clip26_524">
			<rect rx="-0.500000" width="31.000000" height="31.000000" transform="translate(0.500000 0.500000)" fill="white" fill-opacity="0"/>
		</clipPath>
	</defs>
	<rect rx="-0.500000" width="31.000000" height="31.000000" transform="translate(0.500000 0.500000)" fill="#FFFFFF" fill-opacity="0"/>
	<g clip-path="url(#clip26_524)">
		<path d="M29.54 7.54C28.53 7.99 27.45 8.28 26.34 8.41C27.51 7.72 28.38 6.62 28.8 5.33C27.7 5.98 26.5 6.43 25.25 6.68C24.41 5.78 23.3 5.19 22.09 4.99C20.88 4.79 19.63 4.99 18.55 5.57C17.47 6.15 16.6 7.07 16.1 8.19C15.59 9.31 15.47 10.57 15.75 11.77C13.54 11.66 11.37 11.08 9.39 10.08C7.41 9.07 5.66 7.66 4.26 5.94C3.76 6.79 3.5 7.76 3.5 8.74C3.5 10.68 4.49 12.39 5.98 13.39C5.1 13.36 4.23 13.12 3.46 12.69L3.46 12.76C3.46 14.05 3.9 15.29 4.72 16.29C5.54 17.29 6.67 17.97 7.93 18.23C7.11 18.45 6.25 18.48 5.41 18.32C5.77 19.43 6.46 20.4 7.4 21.09C8.33 21.79 9.46 22.17 10.62 22.19C9.46 23.1 8.14 23.77 6.72 24.17C5.31 24.57 3.83 24.68 2.37 24.5C4.92 26.14 7.88 27.01 10.91 27.01C21.17 27.01 26.78 18.51 26.78 11.14C26.78 10.9 26.77 10.66 26.76 10.42C27.85 9.64 28.8 8.66 29.55 7.54L29.54 7.54Z" fill="#5243C2" fill-opacity="1.000000" fill-rule="nonzero"/>
	</g>
</svg>
