<svg width="10.666687" height="14.000000" viewBox="0 0 10.6667 14" fill="none" xmlns="http://www.w3.org/2000/svg" xmlns:xlink="http://www.w3.org/1999/xlink">
	<desc>
			Created with Pixso.
	</desc>
	<defs/>
	<path id="Vector" d="M0 14C0 12.58 0.56 11.22 1.56 10.22C2.56 9.22 3.91 8.66 5.33 8.66C6.74 8.66 8.1 9.22 9.1 10.22C10.1 11.22 10.66 12.58 10.66 14L9.33 14C9.33 12.93 8.91 11.92 8.16 11.17C7.41 10.42 6.39 10 5.33 10C4.27 10 3.25 10.42 2.5 11.17C1.75 11.92 1.33 12.93 1.33 14L0 14ZM5.33 8C3.12 8 1.33 6.2 1.33 4C1.33 1.79 3.12 0 5.33 0C7.54 0 9.33 1.79 9.33 4C9.33 6.2 7.54 8 5.33 8ZM5.33 6.66C6.8 6.66 8 5.47 8 4C8 2.52 6.8 1.33 5.33 1.33C3.85 1.33 2.66 2.52 2.66 4C2.66 5.47 3.85 6.66 5.33 6.66Z" fill="#878787" fill-opacity="1.000000" fill-rule="nonzero"/>
</svg>
