<svg width="24.000000" height="24.000000" viewBox="0 0 24 24" fill="none" xmlns="http://www.w3.org/2000/svg" xmlns:xlink="http://www.w3.org/1999/xlink">
	<desc>
			Created with Pixso.
	</desc>
	<defs>
		<clipPath id="clip2_587">
			<rect id="map / riding-line" rx="-0.500000" width="23.000000" height="23.000000" transform="translate(0.500000 0.500000)" fill="white" fill-opacity="0"/>
		</clipPath>
	</defs>
	<rect id="map / riding-line" rx="-0.500000" width="23.000000" height="23.000000" transform="translate(0.500000 0.500000)" fill="#FFFFFF" fill-opacity="0"/>
	<g clip-path="url(#clip2_587)">
		<path id="Vector" d="M5.5 21C4.9 21 4.32 20.88 3.77 20.65C3.23 20.43 2.73 20.09 2.31 19.68C1.9 19.26 1.56 18.76 1.34 18.22C1.11 17.67 1 17.09 1 16.5C1 15.9 1.11 15.32 1.34 14.77C1.56 14.23 1.9 13.73 2.31 13.31C2.73 12.9 3.23 12.56 3.77 12.34C4.32 12.11 4.9 12 5.5 12C6.69 12 7.83 12.47 8.68 13.31C9.52 14.16 10 15.3 10 16.5C10 17.69 9.52 18.83 8.68 19.68C7.83 20.52 6.69 21 5.5 21ZM5.5 19C6.16 19 6.79 18.73 7.26 18.26C7.73 17.79 8 17.16 8 16.5C8 15.83 7.73 15.2 7.26 14.73C6.79 14.26 6.16 14 5.5 14C4.83 14 4.2 14.26 3.73 14.73C3.26 15.2 3 15.83 3 16.5C3 17.16 3.26 17.79 3.73 18.26C4.2 18.73 4.83 19 5.5 19ZM18.5 21C17.9 21 17.32 20.88 16.77 20.65C16.23 20.43 15.73 20.09 15.31 19.68C14.9 19.26 14.56 18.76 14.34 18.22C14.11 17.67 14 17.09 14 16.5C14 15.9 14.11 15.32 14.34 14.77C14.56 14.23 14.9 13.73 15.31 13.31C15.73 12.9 16.23 12.56 16.77 12.34C17.32 12.11 17.9 12 18.5 12C19.69 12 20.83 12.47 21.68 13.31C22.52 14.16 23 15.3 23 16.5C23 17.69 22.52 18.83 21.68 19.68C20.83 20.52 19.69 21 18.5 21ZM18.5 19C19.16 19 19.79 18.73 20.26 18.26C20.73 17.79 21 17.16 21 16.5C21 15.83 20.73 15.2 20.26 14.73C19.79 14.26 19.16 14 18.5 14C17.83 14 17.2 14.26 16.73 14.73C16.26 15.2 16 15.83 16 16.5C16 17.16 16.26 17.79 16.73 18.26C17.2 18.73 17.83 19 18.5 19ZM11.02 10.3L13 12L13 18L11 18L11 13L8.28 10.73C8.03 10.56 7.83 10.35 7.68 10.09C7.53 9.84 7.44 9.56 7.42 9.26C7.39 8.97 7.43 8.68 7.53 8.4C7.63 8.12 7.79 7.87 8 7.67L10.82 4.84C11.01 4.65 11.23 4.5 11.47 4.4C11.71 4.3 11.97 4.25 12.24 4.25C12.5 4.25 12.76 4.3 13 4.4C13.25 4.5 13.47 4.65 13.65 4.84L15.07 6.25C16.12 7.31 17.5 8.01 18.98 8.23L18.97 10.24C16.96 10.01 15.08 9.1 13.65 7.67L11.02 10.3ZM16 5C15.46 5 14.96 4.78 14.58 4.41C14.21 4.03 14 3.53 14 3C14 2.46 14.21 1.96 14.58 1.58C14.96 1.21 15.46 1 16 1C16.53 1 17.03 1.21 17.41 1.58C17.78 1.96 18 2.46 18 3C18 3.53 17.78 4.03 17.41 4.41C17.03 4.78 16.53 5 16 5Z" fill="#FFA800" fill-opacity="1.000000" fill-rule="nonzero"/>
	</g>
</svg>
