<svg width="24.000000" height="24.000000" viewBox="0 0 24 24" fill="none" xmlns="http://www.w3.org/2000/svg" xmlns:xlink="http://www.w3.org/1999/xlink">
	<desc>
			Created with Pixso.
	</desc>
	<defs>
		<clipPath id="clip2_609">
			<rect id="user / group-line" rx="-0.500000" width="23.000000" height="23.000000" transform="translate(0.500000 0.500000)" fill="white" fill-opacity="0"/>
		</clipPath>
	</defs>
	<rect id="user / group-line" rx="-0.500000" width="23.000000" height="23.000000" transform="translate(0.500000 0.500000)" fill="#FFFFFF" fill-opacity="0"/>
	<g clip-path="url(#clip2_609)">
		<path id="Vector" d="M2 22C2 19.87 2.84 17.84 4.34 16.34C5.84 14.84 7.87 14 10 14C12.12 14 14.15 14.84 15.65 16.34C17.15 17.84 18 19.87 18 22L16 22C16 20.4 15.36 18.88 14.24 17.75C13.11 16.63 11.59 16 10 16C8.4 16 6.88 16.63 5.75 17.75C4.63 18.88 4 20.4 4 22L2 22ZM10 13C6.68 13 4 10.31 4 7C4 3.68 6.68 1 10 1C13.31 1 16 3.68 16 7C16 10.31 13.31 13 10 13ZM10 11C12.21 11 14 9.2 14 7C14 4.79 12.21 3 10 3C7.79 3 6 4.79 6 7C6 9.2 7.79 11 10 11ZM18.28 14.7C19.68 15.33 20.88 16.36 21.71 17.65C22.55 18.95 23 20.45 23 22L21 22C21 20.84 20.66 19.71 20.03 18.74C19.41 17.77 18.51 17 17.46 16.52L18.28 14.7L18.28 14.7ZM17.59 3.41C18.6 3.82 19.46 4.53 20.07 5.43C20.67 6.34 21 7.41 21 8.5C21 9.87 20.48 11.19 19.56 12.2C18.63 13.22 17.36 13.85 16 13.97L16 11.96C16.74 11.85 17.42 11.51 17.96 10.99C18.49 10.46 18.84 9.78 18.96 9.04C19.07 8.3 18.95 7.54 18.6 6.88C18.26 6.22 17.71 5.68 17.04 5.35L17.59 3.41Z" fill="#FFA800" fill-opacity="1.000000" fill-rule="nonzero"/>
	</g>
</svg>
