<svg width="24.000000" height="24.000000" viewBox="0 0 24 24" fill="none" xmlns="http://www.w3.org/2000/svg" xmlns:xlink="http://www.w3.org/1999/xlink">
	<desc>
			Created with Pixso.
	</desc>
	<defs>
		<clipPath id="clip2_217">
			<rect rx="-0.500000" width="23.000000" height="23.000000" transform="translate(0.500000 0.500000)" fill="white" fill-opacity="0"/>
		</clipPath>
	</defs>
	<rect rx="-0.500000" width="23.000000" height="23.000000" transform="translate(0.500000 0.500000)" fill="#FFFFFF" fill-opacity="0"/>
	<g clip-path="url(#clip2_217)">
		<path d="M12 22C6.47 22 2 17.52 2 12C2 6.47 6.47 2 12 2C17.52 2 22 6.47 22 12C22 17.52 17.52 22 12 22ZM9.71 19.66C8.72 17.57 8.15 15.31 8.02 13L4.06 13C4.25 14.53 4.89 15.98 5.89 17.17C6.89 18.35 8.22 19.22 9.71 19.66ZM10.03 13C10.18 15.43 10.87 17.73 12 19.75C13.15 17.67 13.82 15.36 13.97 13L10.03 13ZM19.93 13L15.97 13C15.84 15.31 15.27 17.57 14.29 19.66C15.77 19.22 17.1 18.35 18.1 17.17C19.1 15.98 19.74 14.53 19.93 13ZM4.06 11L8.02 11C8.15 8.68 8.72 6.42 9.71 4.33C8.22 4.77 6.89 5.64 5.89 6.82C4.89 8.01 4.25 9.46 4.06 11ZM10.03 11L13.96 11C13.82 8.63 13.15 6.32 12 4.24C10.84 6.32 10.17 8.63 10.03 11L10.03 11ZM14.29 4.33C15.27 6.42 15.84 8.68 15.97 11L19.93 11C19.74 9.46 19.1 8.01 18.1 6.82C17.1 5.64 15.77 4.77 14.29 4.33Z" fill="#FFFFFF" fill-opacity="1.000000" fill-rule="nonzero"/>
	</g>
</svg>
