<svg width="24.000000" height="24.000000" viewBox="0 0 24 24" fill="none" xmlns="http://www.w3.org/2000/svg" xmlns:xlink="http://www.w3.org/1999/xlink">
	<desc>
			Created with Pixso.
	</desc>
	<defs>
		<clipPath id="clip2_576">
			<rect id="map / map-pin-line" rx="-0.500000" width="23.000000" height="23.000000" transform="translate(0.500000 0.500000)" fill="white" fill-opacity="0"/>
		</clipPath>
	</defs>
	<rect id="map / map-pin-line" rx="-0.500000" width="23.000000" height="23.000000" transform="translate(0.500000 0.500000)" fill="#FFFFFF" fill-opacity="0"/>
	<g clip-path="url(#clip2_576)">
		<path id="Vector" d="M12 20.89L16.95 15.95C17.92 14.97 18.59 13.72 18.86 12.36C19.13 11 18.99 9.6 18.46 8.32C17.93 7.04 17.04 5.94 15.88 5.18C14.73 4.41 13.38 4 12 4C10.61 4 9.26 4.41 8.11 5.18C6.95 5.94 6.06 7.04 5.53 8.32C5 9.6 4.86 11 5.13 12.36C5.4 13.72 6.07 14.97 7.05 15.95L12 20.89ZM12 23.72L5.63 17.36C4.37 16.1 3.52 14.5 3.17 12.75C2.82 11 3 9.2 3.68 7.55C4.36 5.91 5.51 4.5 6.99 3.51C8.47 2.52 10.22 2 12 2C13.78 2 15.52 2.52 17 3.51C18.48 4.5 19.63 5.91 20.31 7.55C20.99 9.2 21.17 11 20.82 12.75C20.47 14.5 19.62 16.1 18.36 17.36L12 23.72ZM12 12.99C12.53 12.99 13.03 12.78 13.41 12.41C13.78 12.03 14 11.53 14 10.99C14 10.46 13.78 9.96 13.41 9.58C13.03 9.21 12.53 8.99 12 8.99C11.46 8.99 10.96 9.21 10.58 9.58C10.21 9.96 10 10.46 10 10.99C10 11.53 10.21 12.03 10.58 12.41C10.96 12.78 11.46 12.99 12 12.99ZM12 14.99C10.93 14.99 9.92 14.57 9.17 13.82C8.42 13.07 8 12.06 8 10.99C8 9.93 8.42 8.92 9.17 8.17C9.92 7.42 10.93 6.99 12 6.99C13.06 6.99 14.07 7.42 14.82 8.17C15.57 8.92 16 9.93 16 10.99C16 12.06 15.57 13.07 14.82 13.82C14.07 14.57 13.06 14.99 12 14.99Z" fill="#FFA800" fill-opacity="1.000000" fill-rule="nonzero"/>
	</g>
</svg>
