<svg width="87.573486" height="35.416016" viewBox="0 0 87.5735 35.416" fill="none" xmlns="http://www.w3.org/2000/svg" xmlns:xlink="http://www.w3.org/1999/xlink">
	<desc>
			Created with Pixso.
	</desc>
	<defs>
		<clipPath id="clip26_514">
			<rect rx="-0.500000" width="15.000000" height="15.000000" transform="translate(72.073486 0.500000)" fill="white" fill-opacity="0"/>
		</clipPath>
	</defs>
	<path d="M24.86 11.81Q25.02 11.95 25.2 12.06Q25.8 12.43 26.64 12.43Q27.43 12.43 28.01 12.08L28.01 12.08Q28.2 11.96 28.36 11.81C28.83 11.38 29.06 10.85 29.06 10.23C29.06 9.59 28.83 9.06 28.36 8.64Q28.17 8.46 27.95 8.33L27.95 8.33Q27.39 8 26.64 8Q25.85 8 25.26 8.34L25.26 8.34L25.26 8.34L25.26 8.34Q25.05 8.47 24.86 8.64Q24.57 8.91 24.41 9.24Q24.19 9.68 24.19 10.23Q24.19 10.7 24.36 11.1L24.36 11.1Q24.53 11.49 24.86 11.81ZM0.04 23.93Q0.8 23.33 0.79 23.33Q0.79 23.33 0.79 23.33Q3.14 21.39 4.48 20.14Q5.85 18.89 6.79 17.52C7.41 16.61 7.72 15.72 7.72 14.86Q7.72 13.87 7.27 13.32C6.96 12.96 6.51 12.77 5.9 12.77Q5.39 12.77 5.01 12.98L5.01 12.98L5.01 12.98Q4.69 13.16 4.46 13.47Q3.95 14.14 3.95 15.39L0 15.39Q0.04 13.35 0.86 11.98Q1.47 10.98 2.35 10.37L2.35 10.37L2.35 10.37Q2.68 10.14 3.04 9.96Q3.11 9.93 3.18 9.9L3.18 9.9Q4.5 9.31 6.07 9.31Q8.85 9.31 10.29 10.71Q10.33 10.74 10.36 10.78C11.34 11.75 11.83 13.03 11.83 14.6C11.83 16.31 11.24 17.9 10.08 19.37Q8.32 21.56 5.61 23.64L12.09 23.64L12.09 26.98L0.04 26.98L0.04 23.93ZM37.1 27.41C35.93 27.41 34.89 27.21 33.98 26.81C33.07 26.41 32.35 25.87 31.82 25.18C31.29 24.48 30.99 23.69 30.93 22.83L34.99 22.83Q35.02 23.14 35.16 23.41Q35.32 23.72 35.63 23.96Q35.71 24.01 35.79 24.06L35.79 24.06Q36.32 24.39 37.05 24.39C37.56 24.39 37.95 24.29 38.23 24.1C38.51 23.89 38.66 23.63 38.66 23.31C38.66 22.92 38.46 22.64 38.06 22.47C37.66 22.27 37.01 22.07 36.11 21.84C35.15 21.62 34.35 21.39 33.71 21.15C33.07 20.89 32.52 20.5 32.06 19.97C31.59 19.43 31.36 18.7 31.36 17.79Q31.36 17.13 31.56 16.54Q31.72 16.1 31.99 15.7C32.42 15.06 33.04 14.56 33.86 14.19C34.69 13.82 35.67 13.64 36.81 13.64C38.49 13.64 39.81 14.05 40.77 14.88C41.75 15.72 42.31 16.82 42.45 18.2L38.66 18.2C38.59 17.73 38.39 17.36 38.03 17.09C37.7 16.82 37.25 16.68 36.69 16.68C36.21 16.68 35.84 16.78 35.59 16.97C35.33 17.15 35.2 17.39 35.2 17.72C35.2 18.1 35.4 18.39 35.8 18.58C36.22 18.77 36.86 18.96 37.72 19.16C38.71 19.41 39.52 19.67 40.15 19.92C40.77 20.16 41.31 20.56 41.78 21.12C42.26 21.67 42.51 22.4 42.52 23.33C42.52 24.12 42.3 24.82 41.85 25.44C41.42 26.05 40.79 26.53 39.95 26.88C39.14 27.24 38.19 27.41 37.1 27.41ZM18.41 16.06C18.89 15.32 19.49 14.75 20.21 14.33Q20.57 14.11 20.96 13.97L20.96 13.97Q21.73 13.68 22.61 13.68L22.61 18.03L21.48 18.03Q19.95 18.03 19.18 18.7C18.67 19.13 18.41 19.9 18.41 21L18.41 27.22L14.31 27.22L14.31 13.83L18.41 13.83L18.41 16.06ZM66.08 15.2C65.1 14.19 63.78 13.68 62.12 13.68C61.18 13.68 60.3 13.91 59.5 14.38Q58.59 14.91 57.97 15.68Q57.77 15.92 57.61 16.18C57.16 15.38 56.54 14.76 55.74 14.33Q55.68 14.3 55.63 14.27Q54.49 13.68 53.05 13.68C52.2 13.68 51.44 13.85 50.77 14.19C50.1 14.51 49.55 14.95 49.14 15.51L49.14 13.83L45.03 13.83L45.03 27.22L49.14 27.22L49.14 19.95C49.14 19.08 49.36 18.42 49.81 17.95C50.27 17.48 50.9 17.24 51.7 17.24C52.5 17.24 53.13 17.48 53.58 17.95C54.04 18.42 54.27 19.08 54.27 19.95L54.27 27.22L58.35 27.22L58.35 19.95C58.35 19.08 58.58 18.42 59.02 17.95C59.49 17.48 60.12 17.24 60.92 17.24C61.72 17.24 62.34 17.48 62.79 17.95C63.26 18.42 63.49 19.08 63.49 19.95L63.49 27.22L67.57 27.22L67.57 19.39C67.57 17.6 67.07 16.2 66.08 15.2ZM28.68 27.22L28.68 13.83L24.57 13.83L24.57 27.22L28.68 27.22Z" fill="#161414" fill-opacity="1.000000" fill-rule="evenodd"/>
	<rect rx="-0.500000" width="15.000000" height="15.000000" transform="translate(72.073486 0.500000)" fill="#FFFFFF" fill-opacity="0"/>
	<g clip-path="url(#clip26_514)">
		<path d="M72.87 6.2C72.52 6.09 72.51 5.9 72.87 5.78L85.6 1.54C85.95 1.42 86.15 1.62 86.05 1.97L82.42 14.69C82.32 15.04 82.11 15.05 81.96 14.72L79.57 9.33L83.57 3.99L78.24 7.99L72.87 6.2Z" fill="#5243C2" fill-opacity="1.000000" fill-rule="nonzero"/>
	</g>
</svg>
